<svg preserveAspectRatio="none" width="100%" height="100%" overflow="visible" style="display: block;" viewBox="0 0 146 146" fill="none" xmlns="http://www.w3.org/2000/svg">
<g id="Group 2646" filter="url(#filter0_d_0_27)">
<g id="Union">
<mask id="path-1-outside-1_0_27" maskUnits="userSpaceOnUse" x="40" y="40" width="66" height="66" fill="black">
<rect fill="white" x="40" y="40" width="66" height="66"/>
<path d="M73.0029 46C73.0024 46.068 73 46.136 73 46.2041C73 61.0028 85.0883 73 100 73C85.0883 73 73 84.9972 73 99.7959C73 99.864 73.0024 99.932 73.0029 100H72.9971C72.9976 99.932 73 99.864 73 99.7959C73 84.9972 60.9117 73 46 73C60.9117 73 73 61.0028 73 46.2041C73 46.136 72.9976 46.068 72.9971 46H73.0029Z"/>
</mask>
<path d="M73.0029 46C73.0024 46.068 73 46.136 73 46.2041C73 61.0028 85.0883 73 100 73C85.0883 73 73 84.9972 73 99.7959C73 99.864 73.0024 99.932 73.0029 100H72.9971C72.9976 99.932 73 99.864 73 99.7959C73 84.9972 60.9117 73 46 73C60.9117 73 73 61.0028 73 46.2041C73 46.136 72.9976 46.068 72.9971 46H73.0029Z" fill="var(--fill-0, #FFB825)"/>
<path d="M73.0029 46L79.0028 46.0452C79.0148 44.4461 78.388 42.9084 77.2615 41.7734C76.135 40.6384 74.6021 40 73.0029 40V46ZM100 79C103.314 79 106 76.3137 106 73C106 69.6863 103.314 67 100 67V73V79ZM73.0029 100V106C74.6021 106 76.135 105.362 77.2615 104.227C78.388 103.092 79.0148 101.554 79.0028 99.9548L73.0029 100ZM72.9971 100L66.9972 99.9548C66.9852 101.554 67.612 103.092 68.7385 104.227C69.865 105.362 71.3979 106 72.9971 106V100ZM46 67C42.6863 67 40 69.6863 40 73C40 76.3137 42.6863 79 46 79V73V67ZM72.9971 46V40C71.3979 40 69.865 40.6384 68.7385 41.7734C67.612 42.9084 66.9852 44.4461 66.9972 46.0452L72.9971 46ZM73.0029 46L67.0031 45.9548C67.0032 45.9446 67.0033 45.9399 67.0032 45.9456C67.003 45.9543 67.0029 45.9596 67.0024 45.9842C67.0017 46.0193 67 46.1054 67 46.204L73 46.2041L79 46.2042C79 46.2221 78.9998 46.2337 78.9998 46.2358C78.9998 46.2371 78.9998 46.2344 79.0001 46.2199C79.0003 46.2104 79.0009 46.1817 79.0013 46.1564C79.0018 46.128 79.0024 46.0894 79.0028 46.0452L73.0029 46ZM73 46.2041H67C67 64.3593 81.8176 79 100 79V73V67C88.3591 67 79 57.6463 79 46.2041H73ZM100 73V67C81.8176 67 67 81.6407 67 99.7959H73H79C79 88.3537 88.3591 79 100 79V73ZM73 99.7959L67 99.796C67 99.8946 67.0017 99.9807 67.0024 100.016C67.0029 100.04 67.003 100.046 67.0032 100.054C67.0033 100.06 67.0032 100.055 67.0031 100.045L73.0029 100L79.0028 99.9548C79.0024 99.9106 79.0018 99.872 79.0013 99.8436C79.0009 99.8183 79.0003 99.7896 79.0001 99.7801C78.9998 99.7656 78.9998 99.7629 78.9998 99.7642C78.9998 99.7663 79 99.7779 79 99.7958L73 99.7959ZM73.0029 100V94H72.9971V100V106H73.0029V100ZM72.9971 100L78.9969 100.045C78.9968 100.055 78.9967 100.06 78.9968 100.054C78.997 100.046 78.9971 100.04 78.9976 100.016C78.9983 99.9807 79 99.8946 79 99.796L73 99.7959L67 99.7958C67 99.7779 67.0002 99.7663 67.0002 99.7642C67.0002 99.7629 67.0002 99.7656 66.9999 99.7801C66.9997 99.7896 66.9991 99.8183 66.9987 99.8436C66.9982 99.872 66.9976 99.9106 66.9972 99.9548L72.9971 100ZM73 99.7959H79C79 81.6407 64.1824 67 46 67V73V79C57.6409 79 67 88.3537 67 99.7959H73ZM46 73V79C64.1824 79 79 64.3593 79 46.2041H73H67C67 57.6463 57.6409 67 46 67V73ZM73 46.2041L79 46.204C79 46.1054 78.9983 46.0193 78.9976 45.9842C78.9971 45.9596 78.997 45.9543 78.9968 45.9456C78.9967 45.9399 78.9968 45.9446 78.9969 45.9548L72.9971 46L66.9972 46.0452C66.9976 46.0894 66.9982 46.128 66.9987 46.1564C66.9991 46.1817 66.9997 46.2104 66.9999 46.2199C67.0002 46.2344 67.0002 46.2371 67.0002 46.2358C67.0002 46.2337 67 46.2221 67 46.2042L73 46.2041ZM72.9971 46V52H73.0029V46V40H72.9971V46Z" fill="var(--stroke-0, white)" mask="url(#path-1-outside-1_0_27)"/>
</g>
</g>
<defs>
<filter id="filter0_d_0_27" x="0" y="0" width="146" height="146" filterUnits="userSpaceOnUse" color-interpolation-filters="sRGB">
<feFlood flood-opacity="0" result="BackgroundImageFix"/>
<feColorMatrix in="SourceAlpha" type="matrix" values="0 0 0 0 0 0 0 0 0 0 0 0 0 0 0 0 0 0 127 0" result="hardAlpha"/>
<feOffset/>
<feGaussianBlur stdDeviation="20"/>
<feComposite in2="hardAlpha" operator="out"/>
<feColorMatrix type="matrix" values="0 0 0 0 1 0 0 0 0 0.721569 0 0 0 0 0.145098 0 0 0 0.5 0"/>
<feBlend mode="normal" in2="BackgroundImageFix" result="effect1_dropShadow_0_27"/>
<feBlend mode="normal" in="SourceGraphic" in2="effect1_dropShadow_0_27" result="shape"/>
</filter>
</defs>
</svg>
